<?xml version="1.0" encoding="UTF-8" standalone="no"?>
<!-- Created with Inkscape (http://www.inkscape.org/) -->

<svg
   xmlns:dc="http://purl.org/dc/elements/1.1/"
   xmlns:cc="http://creativecommons.org/ns#"
   xmlns:rdf="http://www.w3.org/1999/02/22-rdf-syntax-ns#"
   xmlns:svg="http://www.w3.org/2000/svg"
   xmlns="http://www.w3.org/2000/svg"
   xmlns:sodipodi="http://sodipodi.sourceforge.net/DTD/sodipodi-0.dtd"
   xmlns:inkscape="http://www.inkscape.org/namespaces/inkscape"
   width="443.3125"
   height="247.1875"
   id="svg2"
   version="1.1"
   inkscape:version="0.48.4 r9939"
   sodipodi:docname="cloud.ps">
  <defs
     id="defs4" />
  <sodipodi:namedview
     id="base"
     pagecolor="#ffffff"
     bordercolor="#666666"
     borderopacity="1.0"
     inkscape:pageopacity="0.0"
     inkscape:pageshadow="2"
     inkscape:zoom="0.51883278"
     inkscape:cx="307.32849"
     inkscape:cy="-152.99359"
     inkscape:document-units="px"
     inkscape:current-layer="layer1"
     showgrid="false"
     inkscape:window-width="1362"
     inkscape:window-height="732"
     inkscape:window-x="0"
     inkscape:window-y="14"
     inkscape:window-maximized="0"
     fit-margin-top="0"
     fit-margin-left="0"
     fit-margin-right="0"
     fit-margin-bottom="0" />
  <metadata
     id="metadata7">
    <rdf:RDF>
      <cc:Work
         rdf:about="">
        <dc:format>image/svg+xml</dc:format>
        <dc:type
           rdf:resource="http://purl.org/dc/dcmitype/StillImage" />
        <dc:title></dc:title>
      </cc:Work>
    </rdf:RDF>
  </metadata>
  <g
     inkscape:label="Layer 1"
     inkscape:groupmode="layer"
     id="layer1"
     transform="translate(-64.71875,-126)">
    <path
       style="fill:#ffffff;fill-opacity:1;stroke:#000000;stroke-width:2.60504603;stroke-miterlimit:4;stroke-opacity:1;stroke-dasharray:none"
       d="m 223.59375,127.3125 c -46.02665,0 -84.5251,28.73992 -94.03125,67.15625 -37.375037,14.16758 -63.53125,46.83564 -63.53125,84.875 0,51.02858 47.05189,92.40625 105.125,92.40625 22.97749,0 44.23146,-6.51185 61.53125,-17.5 21.60027,10.83192 52.27142,17.625 86.3125,17.625 53.91804,0 99.40692,-16.96665 113.71875,-40.1875 43.66945,-12.77352 74,-40.84042 74,-73.40625 0,-44.60002 -56.88382,-80.75 -127.03125,-80.75 -5.29771,0 -10.49757,0.19325 -15.625,0.59375 -2.02874,-26.20428 -30.05592,-46.96875 -64.34375,-46.96875 -11.23217,0 -21.80408,2.23833 -31,6.15625 -13.46396,-6.37305 -28.8111,-10 -45.125,-10 z"
       id="path2985"
       inkscape:connector-curvature="0" />
  </g>
</svg>
